<svg width="132" height="133" viewBox="0 0 132 133" fill="none" xmlns="http://www.w3.org/2000/svg">
<line x1="-60.6483" y1="75.6225" x2="65.9487" y2="-48.337" stroke="white" stroke-opacity="0.1"/>
<line x1="-54.6483" y1="80.6225" x2="71.9487" y2="-43.337" stroke="white" stroke-opacity="0.1"/>
<line x1="-48.6483" y1="85.6225" x2="77.9487" y2="-38.337" stroke="white" stroke-opacity="0.1"/>
<line x1="-42.6483" y1="90.6225" x2="83.9487" y2="-33.337" stroke="white" stroke-opacity="0.1"/>
<line x1="-36.6483" y1="95.6225" x2="89.9487" y2="-28.337" stroke="white" stroke-opacity="0.1"/>
<line x1="-30.6483" y1="100.622" x2="95.9487" y2="-23.337" stroke="white" stroke-opacity="0.1"/>
<line x1="-24.6483" y1="105.622" x2="101.949" y2="-18.337" stroke="white" stroke-opacity="0.1"/>
<line x1="-18.6483" y1="110.622" x2="107.949" y2="-13.337" stroke="white" stroke-opacity="0.1"/>
<line x1="-12.6483" y1="115.622" x2="113.949" y2="-8.33703" stroke="white" stroke-opacity="0.1"/>
<line x1="-6.64827" y1="120.622" x2="119.949" y2="-3.33703" stroke="white" stroke-opacity="0.1"/>
<line x1="-0.648274" y1="125.622" x2="125.949" y2="1.66297" stroke="white" stroke-opacity="0.1"/>
<line x1="5.35173" y1="130.622" x2="131.949" y2="6.66297" stroke="white" stroke-opacity="0.1"/>
<line x1="11.3517" y1="135.622" x2="137.949" y2="11.663" stroke="white" stroke-opacity="0.1"/>
<line x1="17.3517" y1="140.622" x2="143.949" y2="16.663" stroke="white" stroke-opacity="0.1"/>
<line x1="23.3517" y1="145.622" x2="149.949" y2="21.663" stroke="white" stroke-opacity="0.1"/>
<line x1="29.3517" y1="150.622" x2="155.949" y2="26.663" stroke="white" stroke-opacity="0.1"/>
<line x1="35.3517" y1="155.622" x2="161.949" y2="31.663" stroke="white" stroke-opacity="0.1"/>
<line x1="41.3517" y1="160.622" x2="167.949" y2="36.663" stroke="white" stroke-opacity="0.1"/>
<line x1="47.3517" y1="165.622" x2="173.949" y2="41.663" stroke="white" stroke-opacity="0.1"/>
<line x1="53.3517" y1="170.622" x2="179.949" y2="46.663" stroke="white" stroke-opacity="0.1"/>
<line x1="59.3517" y1="175.622" x2="185.949" y2="51.663" stroke="white" stroke-opacity="0.1"/>
<line x1="65.3517" y1="180.622" x2="191.949" y2="56.663" stroke="white" stroke-opacity="0.1"/>
</svg>
