<svg width="32" height="32" viewBox="0 0 32 32" fill="none" xmlns="http://www.w3.org/2000/svg">
<path d="M28.5 16C29 24.5 24 31.5 16 27.5C6.5 30.5 4.50001 26.5 3.50002 18.5C2.57525 11.1017 7.5 1.4782e-05 16 4.50001C22 0.5 27.5 8.5 28.5 16Z" fill="#8234E9"/>
<path d="M16 6.66666C16.0016 6.13337 15.8965 5.60515 15.6909 5.11306C15.4854 4.62098 15.1835 4.17496 14.803 3.80126C14.4226 3.42755 13.9712 3.13369 13.4755 2.93697C12.9799 2.74025 12.4498 2.64463 11.9167 2.65575C11.3835 2.66686 10.8579 2.78448 10.3708 3.00168C9.88379 3.21889 9.44509 3.5313 9.08053 3.92054C8.71598 4.30977 8.43294 4.76798 8.24807 5.2682C8.06319 5.76842 7.98021 6.30057 8.004 6.83333C7.22027 7.03485 6.49267 7.41206 5.87631 7.93641C5.25994 8.46076 4.77098 9.11849 4.44646 9.85979C4.12193 10.6011 3.97034 11.4065 4.00318 12.2151C4.03602 13.0236 4.25242 13.8141 4.636 14.5267C3.96157 15.0746 3.43123 15.779 3.09112 16.5786C2.751 17.3782 2.61141 18.2488 2.68448 19.1146C2.75756 19.9805 3.04109 20.8154 3.5104 21.5467C3.97972 22.278 4.62062 22.8835 5.37733 23.3107C5.28389 24.0336 5.33965 24.7681 5.54118 25.4687C5.74271 26.1693 6.08573 26.8211 6.54904 27.3839C7.01236 27.9468 7.58614 28.4086 8.23496 28.741C8.88377 29.0734 9.59383 29.2692 10.3213 29.3164C11.0488 29.3636 11.7782 29.2612 12.4645 29.0155C13.1508 28.7697 13.7795 28.3859 14.3117 27.8877C14.8439 27.3895 15.2682 26.7874 15.5586 26.1188C15.849 25.4501 15.9992 24.729 16 24V6.66666Z" stroke="white" stroke-linecap="round" stroke-linejoin="round"/>
<path d="M16 6.66666C15.9984 6.13337 16.1035 5.60515 16.3091 5.11306C16.5146 4.62098 16.8165 4.17496 17.197 3.80126C17.5774 3.42755 18.0288 3.13369 18.5244 2.93697C19.0201 2.74025 19.5501 2.64463 20.0833 2.65575C20.6165 2.66686 21.1421 2.78448 21.6291 3.00168C22.1162 3.21889 22.5549 3.5313 22.9195 3.92054C23.284 4.30977 23.567 4.76798 23.7519 5.2682C23.9368 5.76842 24.0198 6.30057 23.996 6.83333C24.7797 7.03485 25.5073 7.41206 26.1237 7.93641C26.74 8.46076 27.229 9.11849 27.5535 9.85979C27.8781 10.6011 28.0296 11.4065 27.9968 12.2151C27.964 13.0236 27.7476 13.8141 27.364 14.5267C28.0384 15.0746 28.5688 15.779 28.9089 16.5786C29.249 17.3782 29.3886 18.2488 29.3155 19.1146C29.2424 19.9805 28.9589 20.8154 28.4896 21.5467C28.0203 22.278 27.3794 22.8835 26.6227 23.3107C26.7161 24.0336 26.6603 24.7681 26.4588 25.4687C26.2573 26.1693 25.9143 26.8211 25.4509 27.3839C24.9876 27.9468 24.4138 28.4086 23.765 28.741C23.1162 29.0734 22.4062 29.2692 21.6787 29.3164C20.9512 29.3636 20.2218 29.2612 19.5355 29.0155C18.8491 28.7697 18.2205 28.3859 17.6883 27.8877C17.1561 27.3895 16.7318 26.7874 16.4414 26.1188C16.151 25.4501 16.0008 24.729 16 24V6.66666Z" stroke="white" stroke-linecap="round" stroke-linejoin="round"/>
<path d="M20 17.3333C18.8806 16.9395 17.9031 16.2227 17.1911 15.2733C16.4791 14.324 16.0646 13.1849 16 12C15.9354 13.1849 15.5209 14.324 14.8089 15.2733C14.0969 16.2227 13.1194 16.9395 12 17.3333" stroke="white" stroke-linecap="round" stroke-linejoin="round"/>
<path d="M23.4653 8.66668C23.788 8.10746 23.9706 7.47843 23.9973 6.83334" stroke="white" stroke-linecap="round" stroke-linejoin="round"/>
<path d="M8.004 6.83334C8.03036 7.47832 8.21244 8.10734 8.53466 8.66668" stroke="white" stroke-linecap="round" stroke-linejoin="round"/>
<path d="M4.63599 14.528C4.87991 14.3293 5.14092 14.1527 5.41599 14" stroke="white" stroke-linecap="round" stroke-linejoin="round"/>
<path d="M26.584 14C26.859 14.1527 27.1201 14.3293 27.364 14.528" stroke="white" stroke-linecap="round" stroke-linejoin="round"/>
<path d="M7.99999 24C7.08109 24.0004 6.17768 23.7634 5.37732 23.312" stroke="white" stroke-linecap="round" stroke-linejoin="round"/>
<path d="M26.6227 23.312C25.8223 23.7634 24.9189 24.0004 24 24" stroke="white" stroke-linecap="round" stroke-linejoin="round"/>
</svg>
